<svg version="1.1" id="Layer_1" xmlns="http://www.w3.org/2000/svg" xmlns:xlink="http://www.w3.org/1999/xlink" x="0px" y="0px"
	 width="100%" viewBox="0 0 456 255" enable-background="new 0 0 456 255" xml:space="preserve">
<path fill="#FEFEFE" opacity="1.000000" stroke="none" 
	d="
M296.000000,256.000000 
	C197.333344,256.000000 99.166702,256.000000 1.000040,256.000000 
	C1.000026,171.000031 1.000026,86.000069 1.000013,1.000074 
	C152.999939,1.000049 304.999878,1.000049 456.999878,1.000025 
	C456.999908,85.999924 456.999908,170.999847 456.999939,255.999878 
	C403.500000,256.000000 350.000000,256.000000 296.000000,256.000000 
M143.478500,115.920845 
	C152.646210,114.319183 161.754868,112.091225 170.991486,111.220657 
	C219.658356,106.633720 268.384979,105.592575 317.154755,109.760643 
	C320.325256,110.031609 323.539062,109.795944 326.844849,109.795944 
	C318.871216,86.493095 327.452087,68.315178 341.538025,57.747211 
	C354.766876,47.822296 374.192017,47.005192 389.467041,56.669834 
	C401.527557,64.300629 413.755585,80.800316 407.053497,106.846252 
	C411.318085,106.846252 415.514374,106.846252 419.821625,106.846252 
	C415.926727,95.913094 416.025665,95.305870 422.744965,88.101227 
	C423.199310,87.614044 423.686157,87.157349 424.151276,86.680016 
	C436.291992,74.220673 444.246490,59.555035 447.776093,42.254017 
	C433.275513,38.937073 419.046509,35.557159 404.760651,32.437569 
	C359.574249,22.570271 314.247528,13.825993 267.947937,10.609038 
	C233.938431,8.246015 201.306808,12.428552 169.975418,26.099825 
	C148.209610,35.597206 125.451775,40.041656 101.649231,40.180717 
	C77.882271,40.319572 54.546383,43.869995 32.532131,53.343185 
	C24.583750,56.763542 17.142937,61.363411 9.470502,65.425026 
	C9.581869,66.082085 9.693235,66.739136 9.804603,67.396194 
	C11.331579,67.840828 12.850246,68.632355 14.386993,68.669159 
	C20.548553,68.816750 26.715715,68.730400 32.880806,68.730476 
	C37.951260,68.730537 43.021717,68.730492 48.379227,68.730492 
	C46.613335,73.144257 46.613811,73.227081 42.359444,73.251625 
	C32.940819,73.305946 23.521662,73.268532 14.232059,73.268532 
	C15.391534,80.258316 16.847397,86.539299 17.377829,92.897484 
	C17.970589,100.002754 13.359875,104.755661 7.309511,109.160362 
	C23.442614,117.336861 40.048061,116.242058 56.428165,117.987312 
	C45.067242,90.795708 48.169834,71.837318 65.811279,59.010269 
	C82.863304,46.611782 103.887047,47.475742 120.044258,61.238949 
	C136.126801,74.938553 138.027557,94.539146 125.426720,119.577759 
	C131.362473,118.345337 136.996613,117.175537 143.478500,115.920845 
M398.751526,113.151787 
	C399.371307,111.975243 400.026947,110.816017 400.605469,109.619537 
	C408.074036,94.173897 404.665649,75.506073 392.350250,64.344673 
	C379.767059,52.940575 361.501556,50.997105 347.070007,59.526825 
	C332.246704,68.288094 324.834106,85.135704 329.267853,101.865715 
	C333.247986,116.884026 342.975006,126.836723 358.428925,129.996262 
	C375.127197,133.410217 388.401917,127.454514 398.751526,113.151787 
M87.935593,130.871887 
	C92.866280,130.358551 97.974861,130.498428 102.695244,129.212891 
	C118.693169,124.856049 130.540131,108.370499 129.893707,92.135864 
	C129.160553,73.723312 116.573143,58.433937 99.379120,55.071167 
	C72.736748,49.860504 49.319279,72.657593 53.945469,99.359215 
	C56.553818,114.414223 68.658524,128.267487 87.935593,130.871887 
M146.748978,172.435913 
	C132.029129,172.435913 117.309265,172.435913 102.498672,172.435913 
	C102.498672,197.657394 102.498672,222.551727 102.498672,247.666367 
	C108.807137,247.666367 114.846954,247.666367 121.489182,247.666367 
	C121.489182,239.625107 121.489182,231.909531 121.489182,223.940643 
	C123.578529,223.940643 125.083229,224.088638 126.549858,223.915024 
	C132.879578,223.165680 136.991684,225.472519 139.068176,231.794876 
	C140.563324,236.347275 142.789352,240.673096 144.882721,245.006592 
	C145.446106,246.172852 146.678711,247.802551 147.666794,247.847672 
	C153.529861,248.115433 159.411377,247.979858 166.102753,247.979858 
	C161.618835,238.131073 157.523026,229.134796 153.294434,219.846848 
	C165.060516,213.462204 168.604904,203.057861 165.747421,190.131241 
	C163.591736,180.379410 157.494873,174.480225 146.748978,172.435913 
M23.998619,228.499573 
	C23.998619,234.915192 23.998619,241.330811 23.998619,247.698502 
	C37.518547,247.698502 50.340530,248.260117 63.092598,247.555801 
	C78.892136,246.683182 87.720352,238.359192 91.265549,222.795547 
	C93.491768,213.022293 93.000282,203.279007 90.516632,193.709991 
	C88.015556,184.073822 82.041687,177.027847 72.285858,174.295792 
	C56.494438,169.873489 40.335670,172.839203 23.998619,171.884857 
	C23.998619,190.944778 23.998619,209.222290 23.998619,228.499573 
M363.558380,248.001694 
	C365.057953,248.001694 366.599792,247.773041 368.049744,248.041336 
	C374.278961,249.193939 378.175934,246.597702 381.310730,241.235016 
	C384.517975,235.748489 388.624390,230.787598 392.686523,225.108246 
	C397.729553,232.128998 402.249695,238.479080 406.848083,244.772003 
	C407.698059,245.935226 408.831055,247.726852 409.889435,247.767441 
	C416.897919,248.036285 423.921661,247.906525 431.626373,247.906525 
	C430.345276,245.893829 429.696716,244.744873 428.926239,243.684540 
	C421.590668,233.589645 414.329346,223.438278 406.821625,213.472687 
	C404.781952,210.765274 404.597748,208.859161 406.727020,206.092941 
	C411.490906,199.903992 415.905060,193.444962 420.432678,187.075348 
	C423.846436,182.272797 427.215149,177.438263 431.039551,171.998322 
	C426.142761,171.998322 422.105957,172.452682 418.212250,171.899475 
	C411.091125,170.887695 406.388092,173.358902 402.899658,179.681335 
	C400.078796,184.793915 396.273834,189.363495 392.639374,194.553894 
	C387.783447,187.596664 383.458374,181.283295 378.979248,175.081223 
	C378.084747,173.842621 376.637421,172.209991 375.384613,172.155838 
	C368.682587,171.866089 361.961365,172.019150 354.468323,172.019150 
	C355.554688,173.677048 356.052521,174.496994 356.608185,175.275681 
	C364.052216,185.706985 371.445648,196.175339 378.998779,206.527115 
	C380.726593,208.895111 380.836639,210.524689 378.952667,212.988068 
	C372.384979,221.575577 366.104370,230.383377 359.757751,239.138687 
	C357.781281,241.865250 355.941589,244.690933 353.676331,248.001694 
	C357.268921,248.001694 359.931152,248.001694 363.558380,248.001694 
M304.525146,248.003815 
	C319.451691,248.003815 334.378265,248.003815 349.765289,248.003815 
	C349.765289,245.080460 349.765503,242.784821 349.765259,240.489182 
	C349.764496,233.236023 349.764435,233.235382 342.557617,233.234924 
	C332.781189,233.234283 323.004791,233.234756 312.941864,233.234756 
	C312.941864,227.718018 312.941864,222.813446 312.941864,217.195374 
	C323.702118,217.195374 334.244904,217.195374 344.831207,217.195374 
	C344.831207,212.067825 344.831207,207.658264 344.831207,202.726349 
	C334.111816,202.726349 323.695831,202.726349 313.065063,202.726349 
	C313.065063,197.177490 313.065063,192.164047 313.065063,186.765259 
	C315.291595,186.765259 317.098633,186.765350 318.905701,186.765259 
	C327.899384,186.764786 336.895630,186.868134 345.883972,186.648483 
	C347.189087,186.616577 349.454926,185.148972 349.565002,184.156067 
	C349.996124,180.266006 349.741211,176.299927 349.741211,172.280884 
	C330.679626,172.280884 312.275543,172.280884 293.719208,172.280884 
	C293.719208,197.610962 293.719208,222.654938 293.719208,248.003815 
	C297.229706,248.003815 300.382690,248.003815 304.525146,248.003815 
M215.494659,171.997345 
	C212.236008,171.997345 208.977356,171.997345 205.075974,171.997345 
	C214.924377,197.739655 224.515533,222.809509 234.153793,248.002548 
	C239.950394,248.002548 245.444672,247.793167 250.912354,248.084030 
	C254.007126,248.248657 255.165726,246.968918 256.171875,244.288315 
	C261.657928,229.672470 267.365204,215.139832 272.937378,200.556030 
	C276.475677,191.295425 279.911285,181.995560 283.661469,171.997360 
	C279.793793,171.997360 276.689636,171.997375 273.585510,171.997375 
	C263.578278,171.997375 263.639343,172.018906 260.307678,181.457687 
	C255.148529,196.073944 249.896423,210.657394 244.339951,226.217468 
	C238.626297,210.269424 233.219788,195.299423 227.905243,180.296829 
	C224.973953,172.022018 225.043533,171.997375 215.494659,171.997345 
M189.411072,248.006927 
	C191.194489,248.006927 192.977921,248.006927 194.868835,248.006927 
	C194.868835,222.404160 194.868835,197.375137 194.868835,172.284241 
	C188.570374,172.284241 182.655182,172.284241 176.604355,172.284241 
	C176.604355,197.622650 176.604355,222.668243 176.604355,248.006958 
	C180.796234,248.006958 184.617722,248.006958 189.411072,248.006927 
z"/>
<path fill="#1F71FA" opacity="1.000000" stroke="none" 
	d="
M143.054626,115.963287 
	C136.996613,117.175537 131.362473,118.345337 125.426720,119.577759 
	C138.027557,94.539146 136.126801,74.938553 120.044258,61.238949 
	C103.887047,47.475742 82.863304,46.611782 65.811279,59.010269 
	C48.169834,71.837318 45.067242,90.795708 56.428165,117.987312 
	C40.048061,116.242058 23.442614,117.336861 7.309511,109.160362 
	C13.359875,104.755661 17.970589,100.002754 17.377829,92.897484 
	C16.847397,86.539299 15.391534,80.258316 14.232059,73.268532 
	C23.521662,73.268532 32.940819,73.305946 42.359444,73.251625 
	C46.613811,73.227081 46.613335,73.144257 48.379227,68.730492 
	C43.021717,68.730492 37.951260,68.730537 32.880806,68.730476 
	C26.715715,68.730400 20.548553,68.816750 14.386993,68.669159 
	C12.850246,68.632355 11.331579,67.840828 9.804603,67.396194 
	C9.693235,66.739136 9.581869,66.082085 9.470502,65.425026 
	C17.142937,61.363411 24.583750,56.763542 32.532131,53.343185 
	C54.546383,43.869995 77.882271,40.319572 101.649231,40.180717 
	C125.451775,40.041656 148.209610,35.597206 169.975418,26.099825 
	C201.306808,12.428552 233.938431,8.246015 267.947937,10.609038 
	C314.247528,13.825993 359.574249,22.570271 404.760651,32.437569 
	C419.046509,35.557159 433.275513,38.937073 447.776093,42.254017 
	C444.246490,59.555035 436.291992,74.220673 424.151276,86.680016 
	C423.686157,87.157349 423.199310,87.614044 422.744965,88.101227 
	C416.025665,95.305870 415.926727,95.913094 419.821625,106.846252 
	C415.514374,106.846252 411.318085,106.846252 407.053497,106.846252 
	C413.755585,80.800316 401.527557,64.300629 389.467041,56.669834 
	C374.192017,47.005192 354.766876,47.822296 341.538025,57.747211 
	C327.452087,68.315178 318.871216,86.493095 326.844849,109.795944 
	C323.539062,109.795944 320.325256,110.031609 317.154755,109.760643 
	C268.384979,105.592575 219.658356,106.633720 170.991486,111.220657 
	C161.754868,112.091225 152.646210,114.319183 143.054626,115.963287 
M231.321075,95.017860 
	C228.232330,95.456116 225.143600,95.894371 222.054855,96.332626 
	C223.731857,97.082558 225.351959,97.140823 226.965988,97.066971 
	C228.756195,96.985062 230.540848,96.782509 233.096252,96.490204 
	C259.944275,96.759171 286.792297,97.028137 313.623901,97.296936 
	C313.623901,95.754044 313.623901,94.026680 313.623901,90.939705 
	C286.208160,92.362000 259.189148,93.763718 231.321075,95.017860 
M289.524414,38.093147 
	C294.293457,34.620113 299.159088,32.352371 305.536591,32.884613 
	C339.510529,35.719936 373.518066,38.151440 407.510498,40.767944 
	C412.438934,41.147305 417.348572,41.770691 422.266907,42.281155 
	C421.017517,40.776520 419.625061,40.387016 418.207764,40.140205 
	C379.168457,33.342037 339.880066,28.798012 300.281769,26.967587 
	C298.805145,26.899328 296.680298,25.770512 296.071259,24.536777 
	C292.833588,17.978069 287.906403,14.844981 280.555756,15.715716 
	C280.078339,15.772271 279.574127,15.546436 279.078186,15.511505 
	C257.120911,13.964874 234.997421,12.548462 213.502228,17.978413 
	C198.649826,21.730318 184.397919,27.900946 169.945724,33.177109 
	C163.213348,35.634937 156.642456,38.535084 149.998367,41.234734 
	C151.021164,42.007607 151.819748,42.006714 152.618317,42.007732 
	C192.591507,42.058788 232.565598,42.249615 272.536865,41.997803 
	C277.994781,41.963421 283.438751,39.720825 289.524414,38.093147 
z"/>
<path fill="#1F71FA" opacity="1.000000" stroke="none" 
	d="
M398.535217,113.445724 
	C388.401917,127.454514 375.127197,133.410217 358.428925,129.996262 
	C342.975006,126.836723 333.247986,116.884026 329.267853,101.865715 
	C324.834106,85.135704 332.246704,68.288094 347.070007,59.526825 
	C361.501556,50.997105 379.767059,52.940575 392.350250,64.344673 
	C404.665649,75.506073 408.074036,94.173897 400.605469,109.619537 
	C400.026947,110.816017 399.371307,111.975243 398.535217,113.445724 
M350.287109,119.274910 
	C364.806274,128.097855 383.160278,125.042381 387.069519,112.148109 
	C373.016479,123.881477 359.155487,122.795265 345.192322,112.348938 
	C344.835175,113.144089 344.478027,113.939240 344.120880,114.734383 
	C345.988190,116.097237 347.855530,117.460091 350.287109,119.274910 
z"/>
<path fill="#1F71FA" opacity="1.000000" stroke="none" 
	d="
M87.494919,130.818024 
	C68.658524,128.267487 56.553818,114.414223 53.945469,99.359215 
	C49.319279,72.657593 72.736748,49.860504 99.379120,55.071167 
	C116.573143,58.433937 129.160553,73.723312 129.893707,92.135864 
	C130.540131,108.370499 118.693169,124.856049 102.695244,129.212891 
	C97.974861,130.498428 92.866280,130.358551 87.494919,130.818024 
M74.295448,118.259521 
	C88.120560,128.415543 106.222092,126.030533 112.950111,111.714622 
	C98.376930,123.600723 84.461113,123.116470 70.478783,112.350014 
	C70.370499,112.842758 70.262215,113.335503 70.153931,113.828255 
	C71.363518,115.142242 72.573097,116.456230 74.295448,118.259521 
z"/>
<path fill="#FEC12D" opacity="1.000000" stroke="none" 
	d="
M147.156921,172.574509 
	C157.494873,174.480225 163.591736,180.379410 165.747421,190.131241 
	C168.604904,203.057861 165.060516,213.462204 153.294434,219.846848 
	C157.523026,229.134796 161.618835,238.131073 166.102753,247.979858 
	C159.411377,247.979858 153.529861,248.115433 147.666794,247.847672 
	C146.678711,247.802551 145.446106,246.172852 144.882721,245.006592 
	C142.789352,240.673096 140.563324,236.347275 139.068176,231.794876 
	C136.991684,225.472519 132.879578,223.165680 126.549858,223.915024 
	C125.083229,224.088638 123.578529,223.940643 121.489182,223.940643 
	C121.489182,231.909531 121.489182,239.625107 121.489182,247.666367 
	C114.846954,247.666367 108.807137,247.666367 102.498672,247.666367 
	C102.498672,222.551727 102.498672,197.657394 102.498672,172.435913 
	C117.309265,172.435913 132.029129,172.435913 147.156921,172.574509 
M121.231995,197.508148 
	C121.231995,201.273331 121.231995,205.038528 121.231995,208.935181 
	C127.474373,208.935181 132.976486,209.226974 138.432404,208.850174 
	C143.525650,208.498444 146.638794,204.967789 147.065979,200.078156 
	C147.648102,193.415085 145.443542,187.989868 140.782730,187.451782 
	C134.470840,186.723068 128.011627,187.270538 121.232254,187.270538 
	C121.232254,190.581863 121.232254,193.556274 121.231995,197.508148 
z"/>
<path fill="#FEC02C" opacity="1.000000" stroke="none" 
	d="
M23.998619,227.999695 
	C23.998619,209.222290 23.998619,190.944778 23.998619,171.884857 
	C40.335670,172.839203 56.494438,169.873489 72.285858,174.295792 
	C82.041687,177.027847 88.015556,184.073822 90.516632,193.709991 
	C93.000282,203.279007 93.491768,213.022293 91.265549,222.795547 
	C87.720352,238.359192 78.892136,246.683182 63.092598,247.555801 
	C50.340530,248.260117 37.518547,247.698502 23.998619,247.698502 
	C23.998619,241.330811 23.998619,234.915192 23.998619,227.999695 
M43.000275,196.533020 
	C43.000275,208.622406 43.000275,220.711792 43.000275,232.946411 
	C49.051723,232.946411 54.549511,233.400803 59.938251,232.828476 
	C66.310913,232.151657 71.155037,228.220322 71.838882,221.874603 
	C72.681366,214.056778 72.478455,206.034470 71.802444,198.180145 
	C71.412697,193.651855 68.525864,189.255951 63.727112,188.332428 
	C57.053909,187.048157 50.158970,186.916046 43.000275,186.257797 
	C43.000275,190.251846 43.000275,192.897675 43.000275,196.533020 
z"/>
<path fill="#FEC12C" opacity="1.000000" stroke="none" 
	d="
M363.075867,248.001694 
	C359.931152,248.001694 357.268921,248.001694 353.676331,248.001694 
	C355.941589,244.690933 357.781281,241.865250 359.757751,239.138687 
	C366.104370,230.383377 372.384979,221.575577 378.952667,212.988068 
	C380.836639,210.524689 380.726593,208.895111 378.998779,206.527115 
	C371.445648,196.175339 364.052216,185.706985 356.608185,175.275681 
	C356.052521,174.496994 355.554688,173.677048 354.468323,172.019150 
	C361.961365,172.019150 368.682587,171.866089 375.384613,172.155838 
	C376.637421,172.209991 378.084747,173.842621 378.979248,175.081223 
	C383.458374,181.283295 387.783447,187.596664 392.639374,194.553894 
	C396.273834,189.363495 400.078796,184.793915 402.899658,179.681335 
	C406.388092,173.358902 411.091125,170.887695 418.212250,171.899475 
	C422.105957,172.452682 426.142761,171.998322 431.039551,171.998322 
	C427.215149,177.438263 423.846436,182.272797 420.432678,187.075348 
	C415.905060,193.444962 411.490906,199.903992 406.727020,206.092941 
	C404.597748,208.859161 404.781952,210.765274 406.821625,213.472687 
	C414.329346,223.438278 421.590668,233.589645 428.926239,243.684540 
	C429.696716,244.744873 430.345276,245.893829 431.626373,247.906525 
	C423.921661,247.906525 416.897919,248.036285 409.889435,247.767441 
	C408.831055,247.726852 407.698059,245.935226 406.848083,244.772003 
	C402.249695,238.479080 397.729553,232.128998 392.686523,225.108246 
	C388.624390,230.787598 384.517975,235.748489 381.310730,241.235016 
	C378.175934,246.597702 374.278961,249.193939 368.049744,248.041336 
	C366.599792,247.773041 365.057953,248.001694 363.075867,248.001694 
z"/>
<path fill="#FEC12D" opacity="1.000000" stroke="none" 
	d="
M304.030396,248.003815 
	C300.382690,248.003815 297.229706,248.003815 293.719208,248.003815 
	C293.719208,222.654938 293.719208,197.610962 293.719208,172.280884 
	C312.275543,172.280884 330.679626,172.280884 349.741211,172.280884 
	C349.741211,176.299927 349.996124,180.266006 349.565002,184.156067 
	C349.454926,185.148972 347.189087,186.616577 345.883972,186.648483 
	C336.895630,186.868134 327.899384,186.764786 318.905701,186.765259 
	C317.098633,186.765350 315.291595,186.765259 313.065063,186.765259 
	C313.065063,192.164047 313.065063,197.177490 313.065063,202.726349 
	C323.695831,202.726349 334.111816,202.726349 344.831207,202.726349 
	C344.831207,207.658264 344.831207,212.067825 344.831207,217.195374 
	C334.244904,217.195374 323.702118,217.195374 312.941864,217.195374 
	C312.941864,222.813446 312.941864,227.718018 312.941864,233.234756 
	C323.004791,233.234756 332.781189,233.234283 342.557617,233.234924 
	C349.764435,233.235382 349.764496,233.236023 349.765259,240.489182 
	C349.765503,242.784821 349.765289,245.080460 349.765289,248.003815 
	C334.378265,248.003815 319.451691,248.003815 304.030396,248.003815 
z"/>
<path fill="#FEC12C" opacity="1.000000" stroke="none" 
	d="
M215.973938,171.997345 
	C225.043533,171.997375 224.973953,172.022018 227.905243,180.296829 
	C233.219788,195.299423 238.626297,210.269424 244.339951,226.217468 
	C249.896423,210.657394 255.148529,196.073944 260.307678,181.457687 
	C263.639343,172.018906 263.578278,171.997375 273.585510,171.997375 
	C276.689636,171.997375 279.793793,171.997360 283.661469,171.997360 
	C279.911285,181.995560 276.475677,191.295425 272.937378,200.556030 
	C267.365204,215.139832 261.657928,229.672470 256.171875,244.288315 
	C255.165726,246.968918 254.007126,248.248657 250.912354,248.084030 
	C245.444672,247.793167 239.950394,248.002548 234.153793,248.002548 
	C224.515533,222.809509 214.924377,197.739655 205.075974,171.997345 
	C208.977356,171.997345 212.236008,171.997345 215.973938,171.997345 
z"/>
<path fill="#FEC12E" opacity="1.000000" stroke="none" 
	d="
M188.925140,248.006943 
	C184.617722,248.006958 180.796234,248.006958 176.604355,248.006958 
	C176.604355,222.668243 176.604355,197.622650 176.604355,172.284241 
	C182.655182,172.284241 188.570374,172.284241 194.868835,172.284241 
	C194.868835,197.375137 194.868835,222.404160 194.868835,248.006927 
	C192.977921,248.006927 191.194489,248.006927 188.925140,248.006943 
z"/>
<path fill="#FBFCFF" opacity="1.000000" stroke="none" 
	d="
M289.206787,38.296890 
	C283.438751,39.720825 277.994781,41.963421 272.536865,41.997803 
	C232.565598,42.249615 192.591507,42.058788 152.618317,42.007732 
	C151.819748,42.006714 151.021164,42.007607 149.998367,41.234734 
	C156.642456,38.535084 163.213348,35.634937 169.945724,33.177109 
	C184.397919,27.900946 198.649826,21.730318 213.502228,17.978413 
	C234.997421,12.548462 257.120911,13.964874 279.078186,15.511505 
	C279.574127,15.546436 280.078339,15.772271 280.555756,15.715716 
	C287.906403,14.844981 292.833588,17.978069 296.071259,24.536777 
	C296.680298,25.770512 298.805145,26.899328 300.281769,26.967587 
	C339.880066,28.798012 379.168457,33.342037 418.207764,40.140205 
	C419.625061,40.387016 421.017517,40.776520 422.266907,42.281155 
	C417.348572,41.770691 412.438934,41.147305 407.510498,40.767944 
	C373.518066,38.151440 339.510529,35.719936 305.536591,32.884613 
	C299.159088,32.352371 294.293457,34.620113 289.206787,38.296890 
z"/>
<path fill="#F1F6FF" opacity="1.000000" stroke="none" 
	d="
M232.170120,95.165428 
	C259.189148,93.763718 286.208160,92.362000 313.623901,90.939705 
	C313.623901,94.026680 313.623901,95.754044 313.623901,97.296936 
	C286.792297,97.028137 259.944275,96.759171 232.677567,96.317657 
	C232.169266,95.823990 232.139679,95.497429 232.170120,95.165428 
z"/>
<path fill="#74A7FC" opacity="1.000000" stroke="none" 
	d="
M231.745605,95.091644 
	C232.139679,95.497429 232.169266,95.823990 232.293396,96.388794 
	C230.540848,96.782509 228.756195,96.985062 226.965988,97.066971 
	C225.351959,97.140823 223.731857,97.082558 222.054855,96.332626 
	C225.143600,95.894371 228.232330,95.456116 231.745605,95.091644 
z"/>
<path fill="#E6EFFE" opacity="1.000000" stroke="none" 
	d="
M350.005005,119.048920 
	C347.855530,117.460091 345.988190,116.097237 344.120880,114.734383 
	C344.478027,113.939240 344.835175,113.144089 345.192322,112.348938 
	C359.155487,122.795265 373.016479,123.881477 387.069519,112.148109 
	C383.160278,125.042381 364.806274,128.097855 350.005005,119.048920 
z"/>
<path fill="#E8F1FE" opacity="1.000000" stroke="none" 
	d="
M74.039062,118.014870 
	C72.573097,116.456230 71.363518,115.142242 70.153931,113.828255 
	C70.262215,113.335503 70.370499,112.842758 70.478783,112.350014 
	C84.461113,123.116470 98.376930,123.600723 112.950111,111.714622 
	C106.222092,126.030533 88.120560,128.415543 74.039062,118.014870 
z"/>
<path fill="#FFFDFA" opacity="1.000000" stroke="none" 
	d="
M121.232124,197.019409 
	C121.232254,193.556274 121.232254,190.581863 121.232254,187.270538 
	C128.011627,187.270538 134.470840,186.723068 140.782730,187.451782 
	C145.443542,187.989868 147.648102,193.415085 147.065979,200.078156 
	C146.638794,204.967789 143.525650,208.498444 138.432404,208.850174 
	C132.976486,209.226974 127.474373,208.935181 121.231995,208.935181 
	C121.231995,205.038528 121.231995,201.273331 121.232124,197.019409 
z"/>
<path fill="#FFFFFD" opacity="1.000000" stroke="none" 
	d="
M43.000275,196.038269 
	C43.000275,192.897675 43.000275,190.251846 43.000275,186.257797 
	C50.158970,186.916046 57.053909,187.048157 63.727112,188.332428 
	C68.525864,189.255951 71.412697,193.651855 71.802444,198.180145 
	C72.478455,206.034470 72.681366,214.056778 71.838882,221.874603 
	C71.155037,228.220322 66.310913,232.151657 59.938251,232.828476 
	C54.549511,233.400803 49.051723,232.946411 43.000275,232.946411 
	C43.000275,220.711792 43.000275,208.622406 43.000275,196.038269 
z"/>
</svg>